<mxfile host="Electron" modified="2024-03-29T07:56:00.264Z" agent="Mozilla/5.0 (Windows NT 10.0; Win64; x64) AppleWebKit/537.36 (KHTML, like Gecko) draw.io/24.1.0 Chrome/120.0.6099.109 Electron/28.1.0 Safari/537.36" etag="Ij7I2LUSkavCZviepLBY" version="24.1.0" type="device">
  <diagram name="Page-1" id="OJC-GLpbBzJHOGeA-3yw">
    <mxGraphModel dx="1434" dy="844" grid="1" gridSize="10" guides="1" tooltips="1" connect="1" arrows="1" fold="1" page="1" pageScale="1" pageWidth="1100" pageHeight="850" math="0" shadow="0">
      <root>
        <mxCell id="0" />
        <mxCell id="1" parent="0" />
        <mxCell id="GoUSMBliEsWotEIr4tjJ-1" value="&lt;font style=&quot;font-size: 18px;&quot;&gt;การทดสอบที่ 4: การตรวจสอบปริมาณยา&lt;/font&gt;" style="swimlane;fontStyle=0;childLayout=stackLayout;horizontal=1;startSize=30;horizontalStack=0;resizeParent=1;resizeParentMax=0;resizeLast=0;collapsible=1;marginBottom=0;whiteSpace=wrap;html=1;align=left;" vertex="1" parent="1">
          <mxGeometry x="80" y="60" width="610" height="400" as="geometry">
            <mxRectangle x="80" y="60" width="330" height="40" as="alternateBounds" />
          </mxGeometry>
        </mxCell>
        <mxCell id="GoUSMBliEsWotEIr4tjJ-2" value="&lt;span style=&quot;color: rgb(31, 31, 31); font-family: &amp;quot;Google Sans&amp;quot;, &amp;quot;Helvetica Neue&amp;quot;, sans-serif; font-size: 16px; white-space-collapse: preserve; background-color: rgb(255, 255, 255);&quot;&gt;ป้อนข้อมูล:&lt;/span&gt;" style="text;strokeColor=none;fillColor=none;align=left;verticalAlign=middle;spacingLeft=4;spacingRight=4;overflow=hidden;points=[[0,0.5],[1,0.5]];portConstraint=eastwest;rotatable=0;whiteSpace=wrap;html=1;" vertex="1" parent="GoUSMBliEsWotEIr4tjJ-1">
          <mxGeometry y="30" width="610" height="40" as="geometry" />
        </mxCell>
        <mxCell id="GoUSMBliEsWotEIr4tjJ-10" value="&lt;ol style=&quot;font-size: 16px;&quot;&gt;&lt;li&gt;&lt;span style=&quot;background-color: initial;&quot;&gt;ตัวเลข (มิลลิกรัม) แสดงขนาดยาต่อครั้ง&lt;/span&gt;&lt;/li&gt;&lt;li style=&quot;margin-bottom: 0px;&quot; data-sourcepos=&quot;4:1-5:0&quot;&gt;ตัวเลข แสดงจำนวนครั้งของการกินยาต่อวัน&lt;/li&gt;&lt;/ol&gt;" style="text;strokeColor=none;fillColor=none;align=left;verticalAlign=middle;spacingLeft=4;spacingRight=4;overflow=hidden;points=[[0,0.5],[1,0.5]];portConstraint=eastwest;rotatable=0;whiteSpace=wrap;html=1;" vertex="1" parent="GoUSMBliEsWotEIr4tjJ-1">
          <mxGeometry y="70" width="610" height="70" as="geometry" />
        </mxCell>
        <mxCell id="GoUSMBliEsWotEIr4tjJ-12" value="&lt;span style=&quot;color: rgb(31, 31, 31); font-family: &amp;quot;Google Sans&amp;quot;, &amp;quot;Helvetica Neue&amp;quot;, sans-serif; font-size: 16px; white-space-collapse: preserve; background-color: rgb(255, 255, 255);&quot;&gt;การทดสอบ:&lt;/span&gt;" style="text;strokeColor=none;fillColor=none;align=left;verticalAlign=middle;spacingLeft=4;spacingRight=4;overflow=hidden;points=[[0,0.5],[1,0.5]];portConstraint=eastwest;rotatable=0;whiteSpace=wrap;html=1;" vertex="1" parent="GoUSMBliEsWotEIr4tjJ-1">
          <mxGeometry y="140" width="610" height="50" as="geometry" />
        </mxCell>
        <mxCell id="GoUSMBliEsWotEIr4tjJ-14" value="&lt;ol style=&quot;font-size: 16px;&quot;&gt;&lt;li style=&quot;margin-bottom: 0px;&quot; data-sourcepos=&quot;8:1-8:73&quot;&gt;ทดสอบกรณีที่ขนาดยาต่อครั้งถูกต้อง แต่จำนวนครั้งที่กินยาต่อวันมากเกินไป&lt;/li&gt;&lt;li style=&quot;margin-bottom: 0px;&quot; data-sourcepos=&quot;9:1-9:52&quot;&gt;ทดสอบกรณีที่ขนาดยาต่อครั้งมากเกินไปหรือน้อยเกินไป&lt;/li&gt;&lt;li style=&quot;margin-bottom: 0px;&quot; data-sourcepos=&quot;10:1-10:81&quot;&gt;ทดสอบกรณีที่ ขนาดยาต่อครั้ง * จำนวนครั้งที่กินยาต่อวัน มากเกินไปหรือน้อยเกินไป&lt;/li&gt;&lt;li style=&quot;margin-bottom: 0px;&quot; data-sourcepos=&quot;11:1-12:0&quot;&gt;ทดสอบกรณีที่ ขนาดยาต่อครั้ง * จำนวนครั้งที่กินยาต่อวัน อยู่ในช่วงที่ปลอดภัย&lt;/li&gt;&lt;/ol&gt;" style="text;strokeColor=none;fillColor=none;align=left;verticalAlign=middle;spacingLeft=4;spacingRight=4;overflow=hidden;points=[[0,0.5],[1,0.5]];portConstraint=eastwest;rotatable=0;whiteSpace=wrap;html=1;" vertex="1" parent="GoUSMBliEsWotEIr4tjJ-1">
          <mxGeometry y="190" width="610" height="110" as="geometry" />
        </mxCell>
        <mxCell id="GoUSMBliEsWotEIr4tjJ-13" value="&lt;span style=&quot;color: rgb(31, 31, 31); font-family: &amp;quot;Google Sans&amp;quot;, &amp;quot;Helvetica Neue&amp;quot;, sans-serif; font-size: 16px; white-space-collapse: preserve; background-color: rgb(255, 255, 255);&quot;&gt;ผลลัพธ์:&lt;/span&gt;" style="text;strokeColor=none;fillColor=none;align=left;verticalAlign=middle;spacingLeft=4;spacingRight=4;overflow=hidden;points=[[0,0.5],[1,0.5]];portConstraint=eastwest;rotatable=0;whiteSpace=wrap;html=1;" vertex="1" parent="GoUSMBliEsWotEIr4tjJ-1">
          <mxGeometry y="300" width="610" height="50" as="geometry" />
        </mxCell>
        <mxCell id="GoUSMBliEsWotEIr4tjJ-15" value="&lt;div&gt;&lt;span style=&quot;color: rgb(31, 31, 31); font-family: &amp;quot;Google Sans&amp;quot;, &amp;quot;Helvetica Neue&amp;quot;, sans-serif; font-size: 16px; white-space-collapse: preserve; background-color: rgb(255, 255, 255);&quot;&gt;ระบบจะแสดงผลเป็น &quot;ผ่าน&quot; (OK) หรือข้อความแจ้งเตือนว่าขนาดยาอยู่นอกช่วงที่ปลอดภัย&lt;/span&gt;&lt;span style=&quot;font-size: 16px;&quot;&gt;&lt;br&gt;&lt;/span&gt;&lt;/div&gt;" style="text;strokeColor=none;fillColor=none;align=left;verticalAlign=middle;spacingLeft=4;spacingRight=4;overflow=hidden;points=[[0,0.5],[1,0.5]];portConstraint=eastwest;rotatable=0;whiteSpace=wrap;html=1;" vertex="1" parent="GoUSMBliEsWotEIr4tjJ-1">
          <mxGeometry y="350" width="610" height="50" as="geometry" />
        </mxCell>
        <mxCell id="GoUSMBliEsWotEIr4tjJ-11" value="List Item" style="text;strokeColor=none;fillColor=none;align=left;verticalAlign=middle;spacingLeft=4;spacingRight=4;overflow=hidden;points=[[0,0.5],[1,0.5]];portConstraint=eastwest;rotatable=0;whiteSpace=wrap;html=1;" vertex="1" parent="1">
          <mxGeometry x="130" y="780" width="460" height="30" as="geometry" />
        </mxCell>
        <mxCell id="GoUSMBliEsWotEIr4tjJ-3" value="&lt;ol style=&quot;font-size: 16px;&quot;&gt;&lt;li style=&quot;margin-bottom: 0px;&quot; data-sourcepos=&quot;3:1-3:40&quot;&gt;ตัวเลข (มิลลิกรัม) แสดงขนาดยาต่อครั้ง&lt;/li&gt;&lt;li style=&quot;margin-bottom: 0px;&quot; data-sourcepos=&quot;4:1-5:0&quot;&gt;ตัวเลข แสดงจำนวนครั้งของการกินยาต่อวัน&lt;/li&gt;&lt;/ol&gt;" style="text;strokeColor=none;fillColor=none;align=left;verticalAlign=middle;spacingLeft=4;spacingRight=4;overflow=hidden;points=[[0,0.5],[1,0.5]];portConstraint=eastwest;rotatable=0;whiteSpace=wrap;html=1;" vertex="1" parent="1">
          <mxGeometry x="440" y="700" width="460" height="260" as="geometry" />
        </mxCell>
      </root>
    </mxGraphModel>
  </diagram>
</mxfile>
